<svg width="24" height="24" viewBox="0 0 24 24" fill="none" xmlns="http://www.w3.org/2000/svg">
<path d="M12 14C13.1046 14 14 13.1046 14 12C14 10.8954 13.1046 10 12 10C10.8954 10 10 10.8954 10 12C10 13.1046 10.8954 14 12 14Z" fill="black" stroke="black" stroke-linecap="round" stroke-linejoin="round"/>
<path d="M12 16C16.4183 16 20 14.2091 20 12C20 9.79086 16.4183 8 12 8C7.58172 8 4 9.79086 4 12C4 14.2091 7.58172 16 12 16Z" stroke="#F97316" stroke-linecap="round" stroke-linejoin="round"/>
<path d="M8.5359 14C10.745 17.8263 14.0868 20.0328 16 18.9282C17.9132 17.8236 17.6732 13.8263 15.4641 10C13.255 6.17366 9.91317 3.96723 8 5.0718C6.08683 6.17637 6.32676 10.1737 8.5359 14Z" stroke="#16A049" stroke-linecap="round" stroke-linejoin="round"/>
<path d="M8.5359 10C6.32676 13.8263 6.08683 17.8236 8 18.9282C9.91317 20.0328 13.255 17.8263 15.4641 14C17.6732 10.1737 17.9132 6.17637 16 5.0718C14.0868 3.96723 10.745 6.17366 8.5359 10Z" stroke="#2862EB" stroke-linecap="round" stroke-linejoin="round"/>
</svg>
